<svg xmlns="http://www.w3.org/2000/svg" width="300" height="300" viewBox="0 0 300 300">
<rect width="100%" height="100%" fill="#1a1410"/>
<g fill="#c9a84c">
<rect x="0" y="0" width="84" height="84" rx="2"/>
<rect x="12" y="12" width="60" height="60" rx="1" fill="#1a1410"/>
<rect x="24" y="24" width="36" height="36" rx="1"/>
<rect x="216" y="0" width="84" height="84" rx="2"/>
<rect x="228" y="12" width="60" height="60" rx="1" fill="#1a1410"/>
<rect x="240" y="24" width="36" height="36" rx="1"/>
<rect x="0" y="216" width="84" height="84" rx="2"/>
<rect x="12" y="228" width="60" height="60" rx="1" fill="#1a1410"/>
<rect x="24" y="240" width="36" height="36" rx="1"/>
<rect x="96" y="0" width="12" height="12"/>
<rect x="132" y="0" width="12" height="12"/>
<rect x="144" y="0" width="12" height="12"/>
<rect x="168" y="0" width="12" height="12"/>
<rect x="180" y="0" width="12" height="12"/>
<rect x="108" y="12" width="12" height="12"/>
<rect x="120" y="12" width="12" height="12"/>
<rect x="144" y="12" width="12" height="12"/>
<rect x="180" y="12" width="12" height="12"/>
<rect x="108" y="24" width="12" height="12"/>
<rect x="120" y="24" width="12" height="12"/>
<rect x="132" y="24" width="12" height="12"/>
<rect x="144" y="24" width="12" height="12"/>
<rect x="168" y="24" width="12" height="12"/>
<rect x="180" y="24" width="12" height="12"/>
<rect x="192" y="24" width="12" height="12"/>
<rect x="204" y="24" width="12" height="12"/>
<rect x="84" y="36" width="12" height="12"/>
<rect x="96" y="36" width="12" height="12"/>
<rect x="120" y="36" width="12" height="12"/>
<rect x="132" y="36" width="12" height="12"/>
<rect x="144" y="36" width="12" height="12"/>
<rect x="180" y="36" width="12" height="12"/>
<rect x="204" y="36" width="12" height="12"/>
<rect x="84" y="48" width="12" height="12"/>
<rect x="96" y="48" width="12" height="12"/>
<rect x="108" y="48" width="12" height="12"/>
<rect x="120" y="48" width="12" height="12"/>
<rect x="144" y="48" width="12" height="12"/>
<rect x="168" y="48" width="12" height="12"/>
<rect x="180" y="48" width="12" height="12"/>
<rect x="204" y="48" width="12" height="12"/>
<rect x="84" y="60" width="12" height="12"/>
<rect x="96" y="60" width="12" height="12"/>
<rect x="108" y="60" width="12" height="12"/>
<rect x="132" y="60" width="12" height="12"/>
<rect x="156" y="60" width="12" height="12"/>
<rect x="168" y="60" width="12" height="12"/>
<rect x="180" y="60" width="12" height="12"/>
<rect x="84" y="72" width="12" height="12"/>
<rect x="120" y="72" width="12" height="12"/>
<rect x="132" y="72" width="12" height="12"/>
<rect x="144" y="72" width="12" height="12"/>
<rect x="156" y="72" width="12" height="12"/>
<rect x="0" y="84" width="12" height="12"/>
<rect x="24" y="84" width="12" height="12"/>
<rect x="72" y="84" width="12" height="12"/>
<rect x="84" y="84" width="12" height="12"/>
<rect x="96" y="84" width="12" height="12"/>
<rect x="108" y="84" width="12" height="12"/>
<rect x="120" y="84" width="12" height="12"/>
<rect x="132" y="84" width="12" height="12"/>
<rect x="144" y="84" width="12" height="12"/>
<rect x="168" y="84" width="12" height="12"/>
<rect x="204" y="84" width="12" height="12"/>
<rect x="216" y="84" width="12" height="12"/>
<rect x="228" y="84" width="12" height="12"/>
<rect x="240" y="84" width="12" height="12"/>
<rect x="252" y="84" width="12" height="12"/>
<rect x="0" y="96" width="12" height="12"/>
<rect x="12" y="96" width="12" height="12"/>
<rect x="24" y="96" width="12" height="12"/>
<rect x="36" y="96" width="12" height="12"/>
<rect x="60" y="96" width="12" height="12"/>
<rect x="84" y="96" width="12" height="12"/>
<rect x="96" y="96" width="12" height="12"/>
<rect x="108" y="96" width="12" height="12"/>
<rect x="132" y="96" width="12" height="12"/>
<rect x="156" y="96" width="12" height="12"/>
<rect x="180" y="96" width="12" height="12"/>
<rect x="192" y="96" width="12" height="12"/>
<rect x="216" y="96" width="12" height="12"/>
<rect x="228" y="96" width="12" height="12"/>
<rect x="240" y="96" width="12" height="12"/>
<rect x="264" y="96" width="12" height="12"/>
<rect x="12" y="108" width="12" height="12"/>
<rect x="24" y="108" width="12" height="12"/>
<rect x="72" y="108" width="12" height="12"/>
<rect x="84" y="108" width="12" height="12"/>
<rect x="96" y="108" width="12" height="12"/>
<rect x="144" y="108" width="12" height="12"/>
<rect x="168" y="108" width="12" height="12"/>
<rect x="228" y="108" width="12" height="12"/>
<rect x="252" y="108" width="12" height="12"/>
<rect x="288" y="108" width="12" height="12"/>
<rect x="12" y="120" width="12" height="12"/>
<rect x="24" y="120" width="12" height="12"/>
<rect x="48" y="120" width="12" height="12"/>
<rect x="60" y="120" width="12" height="12"/>
<rect x="84" y="120" width="12" height="12"/>
<rect x="96" y="120" width="12" height="12"/>
<rect x="108" y="120" width="12" height="12"/>
<rect x="120" y="120" width="12" height="12"/>
<rect x="132" y="120" width="12" height="12"/>
<rect x="144" y="120" width="12" height="12"/>
<rect x="156" y="120" width="12" height="12"/>
<rect x="168" y="120" width="12" height="12"/>
<rect x="192" y="120" width="12" height="12"/>
<rect x="240" y="120" width="12" height="12"/>
<rect x="252" y="120" width="12" height="12"/>
<rect x="264" y="120" width="12" height="12"/>
<rect x="276" y="120" width="12" height="12"/>
<rect x="288" y="120" width="12" height="12"/>
<rect x="12" y="132" width="12" height="12"/>
<rect x="48" y="132" width="12" height="12"/>
<rect x="60" y="132" width="12" height="12"/>
<rect x="72" y="132" width="12" height="12"/>
<rect x="84" y="132" width="12" height="12"/>
<rect x="96" y="132" width="12" height="12"/>
<rect x="156" y="132" width="12" height="12"/>
<rect x="168" y="132" width="12" height="12"/>
<rect x="192" y="132" width="12" height="12"/>
<rect x="240" y="132" width="12" height="12"/>
<rect x="0" y="144" width="12" height="12"/>
<rect x="12" y="144" width="12" height="12"/>
<rect x="24" y="144" width="12" height="12"/>
<rect x="84" y="144" width="12" height="12"/>
<rect x="96" y="144" width="12" height="12"/>
<rect x="132" y="144" width="12" height="12"/>
<rect x="192" y="144" width="12" height="12"/>
<rect x="204" y="144" width="12" height="12"/>
<rect x="216" y="144" width="12" height="12"/>
<rect x="240" y="144" width="12" height="12"/>
<rect x="264" y="144" width="12" height="12"/>
<rect x="288" y="144" width="12" height="12"/>
<rect x="0" y="156" width="12" height="12"/>
<rect x="12" y="156" width="12" height="12"/>
<rect x="24" y="156" width="12" height="12"/>
<rect x="36" y="156" width="12" height="12"/>
<rect x="72" y="156" width="12" height="12"/>
<rect x="96" y="156" width="12" height="12"/>
<rect x="108" y="156" width="12" height="12"/>
<rect x="132" y="156" width="12" height="12"/>
<rect x="156" y="156" width="12" height="12"/>
<rect x="168" y="156" width="12" height="12"/>
<rect x="192" y="156" width="12" height="12"/>
<rect x="204" y="156" width="12" height="12"/>
<rect x="216" y="156" width="12" height="12"/>
<rect x="240" y="156" width="12" height="12"/>
<rect x="276" y="156" width="12" height="12"/>
<rect x="12" y="168" width="12" height="12"/>
<rect x="24" y="168" width="12" height="12"/>
<rect x="60" y="168" width="12" height="12"/>
<rect x="84" y="168" width="12" height="12"/>
<rect x="96" y="168" width="12" height="12"/>
<rect x="108" y="168" width="12" height="12"/>
<rect x="120" y="168" width="12" height="12"/>
<rect x="132" y="168" width="12" height="12"/>
<rect x="144" y="168" width="12" height="12"/>
<rect x="180" y="168" width="12" height="12"/>
<rect x="204" y="168" width="12" height="12"/>
<rect x="276" y="168" width="12" height="12"/>
<rect x="288" y="168" width="12" height="12"/>
<rect x="24" y="180" width="12" height="12"/>
<rect x="84" y="180" width="12" height="12"/>
<rect x="120" y="180" width="12" height="12"/>
<rect x="132" y="180" width="12" height="12"/>
<rect x="144" y="180" width="12" height="12"/>
<rect x="156" y="180" width="12" height="12"/>
<rect x="204" y="180" width="12" height="12"/>
<rect x="216" y="180" width="12" height="12"/>
<rect x="228" y="180" width="12" height="12"/>
<rect x="240" y="180" width="12" height="12"/>
<rect x="252" y="180" width="12" height="12"/>
<rect x="276" y="180" width="12" height="12"/>
<rect x="288" y="180" width="12" height="12"/>
<rect x="0" y="192" width="12" height="12"/>
<rect x="12" y="192" width="12" height="12"/>
<rect x="24" y="192" width="12" height="12"/>
<rect x="60" y="192" width="12" height="12"/>
<rect x="72" y="192" width="12" height="12"/>
<rect x="84" y="192" width="12" height="12"/>
<rect x="96" y="192" width="12" height="12"/>
<rect x="108" y="192" width="12" height="12"/>
<rect x="132" y="192" width="12" height="12"/>
<rect x="156" y="192" width="12" height="12"/>
<rect x="180" y="192" width="12" height="12"/>
<rect x="216" y="192" width="12" height="12"/>
<rect x="240" y="192" width="12" height="12"/>
<rect x="264" y="192" width="12" height="12"/>
<rect x="0" y="204" width="12" height="12"/>
<rect x="72" y="204" width="12" height="12"/>
<rect x="120" y="204" width="12" height="12"/>
<rect x="144" y="204" width="12" height="12"/>
<rect x="156" y="204" width="12" height="12"/>
<rect x="180" y="204" width="12" height="12"/>
<rect x="192" y="204" width="12" height="12"/>
<rect x="252" y="204" width="12" height="12"/>
<rect x="84" y="216" width="12" height="12"/>
<rect x="96" y="216" width="12" height="12"/>
<rect x="132" y="216" width="12" height="12"/>
<rect x="180" y="216" width="12" height="12"/>
<rect x="192" y="216" width="12" height="12"/>
<rect x="204" y="216" width="12" height="12"/>
<rect x="216" y="216" width="12" height="12"/>
<rect x="228" y="216" width="12" height="12"/>
<rect x="240" y="216" width="12" height="12"/>
<rect x="264" y="216" width="12" height="12"/>
<rect x="276" y="216" width="12" height="12"/>
<rect x="96" y="228" width="12" height="12"/>
<rect x="120" y="228" width="12" height="12"/>
<rect x="132" y="228" width="12" height="12"/>
<rect x="156" y="228" width="12" height="12"/>
<rect x="168" y="228" width="12" height="12"/>
<rect x="180" y="228" width="12" height="12"/>
<rect x="192" y="228" width="12" height="12"/>
<rect x="204" y="228" width="12" height="12"/>
<rect x="264" y="228" width="12" height="12"/>
<rect x="276" y="228" width="12" height="12"/>
<rect x="84" y="240" width="12" height="12"/>
<rect x="156" y="240" width="12" height="12"/>
<rect x="192" y="240" width="12" height="12"/>
<rect x="216" y="240" width="12" height="12"/>
<rect x="228" y="240" width="12" height="12"/>
<rect x="240" y="240" width="12" height="12"/>
<rect x="108" y="252" width="12" height="12"/>
<rect x="132" y="252" width="12" height="12"/>
<rect x="144" y="252" width="12" height="12"/>
<rect x="168" y="252" width="12" height="12"/>
<rect x="216" y="252" width="12" height="12"/>
<rect x="228" y="252" width="12" height="12"/>
<rect x="240" y="252" width="12" height="12"/>
<rect x="264" y="252" width="12" height="12"/>
<rect x="288" y="252" width="12" height="12"/>
<rect x="84" y="264" width="12" height="12"/>
<rect x="108" y="264" width="12" height="12"/>
<rect x="132" y="264" width="12" height="12"/>
<rect x="156" y="264" width="12" height="12"/>
<rect x="168" y="264" width="12" height="12"/>
<rect x="180" y="264" width="12" height="12"/>
<rect x="192" y="264" width="12" height="12"/>
<rect x="228" y="264" width="12" height="12"/>
<rect x="288" y="264" width="12" height="12"/>
<rect x="84" y="276" width="12" height="12"/>
<rect x="96" y="276" width="12" height="12"/>
<rect x="132" y="276" width="12" height="12"/>
<rect x="156" y="276" width="12" height="12"/>
<rect x="180" y="276" width="12" height="12"/>
<rect x="192" y="276" width="12" height="12"/>
<rect x="216" y="276" width="12" height="12"/>
<rect x="228" y="276" width="12" height="12"/>
<rect x="252" y="276" width="12" height="12"/>
<rect x="96" y="288" width="12" height="12"/>
<rect x="108" y="288" width="12" height="12"/>
<rect x="120" y="288" width="12" height="12"/>
<rect x="156" y="288" width="12" height="12"/>
<rect x="204" y="288" width="12" height="12"/>
<rect x="216" y="288" width="12" height="12"/>
<rect x="252" y="288" width="12" height="12"/>
<rect x="276" y="288" width="12" height="12"/>
<rect x="288" y="288" width="12" height="12"/>
</g>
<circle cx="150" cy="150" r="36" fill="#1a1410" stroke="#c9a84c" stroke-width="2"/>
<text x="150" y="155" text-anchor="middle" font-size="24" fill="#c9a84c" font-family="serif" font-weight="bold">500</text>
</svg>